<?xml version="1.0" encoding="utf-8"?>
<!-- Generator: Adobe Illustrator 19.0.0, SVG Export Plug-In . SVG Version: 6.00 Build 0)  -->
<svg version="1.1" id="Layer_1" xmlns="http://www.w3.org/2000/svg" xmlns:xlink="http://www.w3.org/1999/xlink" x="0px" y="0px"
	 viewBox="-36 -160 800 800" style="enable-background:new -36 -160 800 800;" xml:space="preserve">
<style type="text/css">
	.st0{fill:none;stroke:#3B3858;stroke-width:12;stroke-linecap:round;stroke-linejoin:round;stroke-miterlimit:10;}
	.st1{fill:#FA9F42;}
	.st2{fill:#FFFFFF;}
</style>
<g id="Layer_1_1_">
	<g>
		<path class="st0" d="M524.9,303.8c0,0-16.2-71.5-89.8-99.9c-58.4-22.5-108.4-24.6-108.4-24.6s-59.1-26-103.5-53.9
			c-72.5-45.5-95.6-2.7-39.6,36"/>
		<path class="st0" d="M129.3,188.6C67.1,149.1,91,101.7,160.5,147c64.7,42.1,128.7,70.8,128.7,70.8s6.6-10.9,14.9-18.1"/>
		<path class="st0" d="M253,299.5c0,0-33.7-5.7-129.7-51.1c-76-36-78.2,14-25,47.9c79.6,50.8,167.9,77.4,167.9,77.4"/>
		<path class="st0" d="M261.7,279.3c0,0-10.1,19.1-10.3,35.7"/>
		<path class="st0" d="M390.6,334.8c0,0-50.7-18.9-78.4,40.2c0,0-63.5-6-130,7.8s-44,62.1,7.6,62.3s98.8,4,154.6,23.3
			c49.6,17.1,90.3,3.8,114.9-24.4"/>
		<path class="st0" d="M520.6,290.6c0,0,64.9,26.3,129.7,37.3"/>
		<line class="st0" x1="450.9" y1="452.5" x2="570.3" y2="499.3"/>
		<path class="st0" d="M263.1,252.3c0,0-55.7-13.8-145.1-70.9c-74.3-47.4-99.2,4.4-44.2,39.3C90.9,231.6,116,245,116,245"/>
	</g>
</g>
<g id="bubble-1">
	<circle class="st1" cx="166.3" cy="329.4" r="26.2"/>
</g>
<g id="bubble-2">
	<circle class="st1" cx="423.9" cy="380.1" r="28.8"/>
</g>
<g id="bubble-3">
	<circle class="st1" cx="495.6" cy="305.4" r="40.8"/>
</g>
<g id="bubble-4">
	<circle class="st1" cx="280.6" cy="337.7" r="18.8"/>
</g>
<g id="bubble-5">
	<circle class="st1" cx="134.2" cy="227.4" r="47.3"/>
</g>
<g id="bubble-6">
	<circle class="st1" cx="340.7" cy="273.5" r="85.9"/>
</g>
<g id="bubble-10">
	<circle class="st1" cx="237.5" cy="227.4" r="47.3"/>
</g>
<g id="bubble-11">
	<circle class="st1" cx="430.7" cy="250.3" r="61.3"/>
</g>
<g id="bubble-12">
	<circle class="st1" cx="517.2" cy="242" r="40.8"/>
</g>
<g id="hand-top">
	<g>
		<g>
			<path class="st2" d="M654.9-19.3C579.8,7.7,522,14.6,522,14.6c-150.6-33.5-290.2,3-338.6,20.7c-33.3,12.2-40.9,34.6-28.8,43.6
				c-12.7,3.6-22.9,7.2-32.5,11.3c-25.3,10.7-40.7,42.3-3.1,46.6c-71.4,21.4-61.4,69.3,5.3,55.1c19.8-4.2,49.6-9.9,49.6-9.9
				c-68.6,20.5-64.4,71.7,2.6,56.2c63.1-14.6,145.8-26.9,192.4-33.2c-20,12.3-52.8,36.2-76,57.1c-50.4,45.5-6.6,75.9,38.1,49.9
				c44.6-26,84.6-46,142.5-57.6c45.9-9.2,73.4-35.8,83.8-67.6l126.7-20"/>
		</g>
		<g>
			<path class="st0" d="M119.1,136.8c-37.6-4.3-22.2-35.9,3.1-46.6c55.2-23.3,178.7-41,178.7-41"/>
			<path class="st0" d="M311.9,154.4c0,0-57.9,3.7-138,27.6c-68.6,20.5-64.4,71.7,2.6,56.2c92-21.3,228.8-37.9,228.8-37.9"/>
			<path class="st0" d="M369,204.9c-20,12.3-52.8,36.2-76,57.1c-50.4,45.5-6.6,75.9,38.1,49.9c44.6-26,84.6-46,142.5-57.6
				c51.4-10.3,79.8-42.4,86.8-79.2"/>
			<path class="st0" d="M654.9-19.3C579.8,7.7,522,14.6,522,14.6c-150.6-33.5-290.2,3-338.6,20.7c-33.3,12.2-40.9,34.6-28.8,43.6"/>
			<line class="st0" x1="557.3" y1="186.8" x2="684" y2="166.8"/>
			<path class="st0" d="M299.4,103.3c0,0-91.1,9.4-174.2,31.8c-76.6,20.6-68.9,71.4-0.8,56.8c19.8-4.2,49.6-9.9,49.6-9.9"/>
		</g>
	</g>
</g>
</svg>
