<?xml version="1.0" encoding="utf-8"?>
<!-- Generator: Adobe Illustrator 19.0.0, SVG Export Plug-In . SVG Version: 6.00 Build 0)  -->
<svg version="1.1" id="Layer_1" xmlns="http://www.w3.org/2000/svg" xmlns:xlink="http://www.w3.org/1999/xlink" x="0px" y="0px"
	 viewBox="-36 -160 800 800" style="enable-background:new -36 -160 800 800;" xml:space="preserve">
<style type="text/css">
	.st0{fill:none;stroke:#3B3858;stroke-width:12;stroke-linecap:round;stroke-linejoin:round;stroke-miterlimit:10;}
	.st1{fill:none;stroke:#FA9F42;stroke-width:12;stroke-linecap:round;stroke-linejoin:round;stroke-miterlimit:10;}
	.st2{fill:#FA9F42;stroke:#FA9F42;stroke-width:12;stroke-linecap:round;stroke-linejoin:round;stroke-miterlimit:10;}
	.st3{fill:#3B3858;}
</style>
<g id="head">
	<path class="st0" d="M436.3,130.3c-62.7,36.8-285.8,16.6-259.2-123.4c16.4-86.1,207.2-160.2,373.8,42c0,0,73.7,5,84,68.6
		c6.6,40.8-17.1,69.8-17.1,69.8s37.1,38.3-6.6,55"/>
	<path class="st0" d="M557.4-0.9c7.1,23.5-6.4,49.8-6.4,49.8l34.9-12.8"/>
	<line class="st1" x1="392.6" y1="295.7" x2="497.7" y2="244.6"/>
	<line class="st1" x1="430.3" y1="412.6" x2="561.3" y2="393.1"/>
	<path class="st0" d="M357,479.8c0,0,3.9,51.7,1.3,70.2"/>
	<path class="st0" d="M234.7,119.3c0,0-25,101.7-5.7,170.3"/>
	<line class="st0" x1="287.8" y1="204.9" x2="280.3" y2="241.1"/>
	<path class="st0" d="M193.8,85.8c-45.3,14.7-53.9,82.5,6.4,89.2c0,0-16,30,21.9,30"/>
	<path class="st0" d="M527.8,237.9c5.1-11.2,15.4-18.9,27.3-18.9c17,0,30.7,15.5,30.7,34.6c0,14.2-7.6,26.4-18.4,31.7"/>
	<path class="st2" d="M275.1,244.6c-23.8,1-74.2,70.2-74.2,144.9s55,101,109.9,101c72.1,0,119.5-77.9,119.5-77.9l-37.7-116.9
		C331.9,286.7,303.4,243.5,275.1,244.6z"/>
	
		<ellipse transform="matrix(-0.4502 -0.8929 0.8929 -0.4502 1.582 830.2158)" class="st0" cx="256.4" cy="414.6" rx="41.2" ry="31.4"/>
	<path class="st0" d="M405.6,141.5c0,0,3.7,89,60,65.5c0,0-5.7,37.7,32.2,37.7"/>
	<path class="st0" d="M500.7,274.3c-1.9-6.4-2.9-13.3-2.9-20.5c0-35.6,25.6-64.5,57.2-64.5c31.6,0,57.2,28.9,57.2,64.5
		s-25.6,64.5-57.2,64.5c-7,0-13.8-1.4-20-4.1"/>
	<path class="st0" d="M561.8,318.3c0,0-6.5,125,31.2,223.3"/>
</g>
<g id="eye-left">
	<circle class="st3" cx="243.9" cy="223" r="12.4"/>
</g>
<g id="eye-right">
	<circle class="st3" cx="371.1" cy="231.5" r="14.1"/>
</g>
<g id="breath-01">
	<path class="st1" d="M109.3,438.6c-5.3-3.7-12.3-4.8-18.8-2.3c-10.4,4-15.6,15.6-11.6,26s16.2,15.6,30.3,14
		c30.8-3.4,67.4-30,67.4-30"/>
</g>
<g id="breath-02">
	<path class="st1" d="M61.5,494.6c-11,4.2-16.5,16.6-12.2,27.5s17.1,16.2,32.1,14.8C139,531.6,191.8,471,191.8,471"/>
</g>
<g id="breath-03">
	<path class="st1" d="M208,541.6c1.5,4.3,1,9.2-1.9,13.1c-4.6,6.3-13.4,7.7-19.7,3.1c-6.3-4.6-7.6-13.8-3.9-23.1
		c8-20.2,32.6-40.1,32.6-40.1"/>
</g>
</svg>
